<svg width="92" height="90" viewBox="0 0 92 90" fill="none" xmlns="http://www.w3.org/2000/svg">
<path d="M56.2153 43.3151L47.1374 51.9802L8.80308 88.5661C7.79669 89.5289 6.50566 90.0103 5.21463 90.0103C3.80162 90.0103 2.38861 89.4367 1.36188 88.2998C-0.661062 86.0669 -0.396757 82.5743 1.93116 80.6692L47.1374 43.8272L52.1185 39.7712L56.2153 43.3151Z" fill="url(#paint0_linear_23_157)"/>
<path d="M46.741 52.4207L37.8054 60.9424L36.982 52.1851L41.8717 48.2008L46.741 52.4207Z" fill="#3A81D6" fill-opacity="0.8"/>
<path d="M91.9777 29.9078C91.9777 46.4288 78.6812 59.8259 62.2943 59.8259C51.9661 59.8259 42.8679 54.5101 37.5513 46.4391C34.4305 41.7071 32.6108 36.0225 32.6108 29.9078C32.6108 13.3868 45.9074 0 62.2943 0C69.6948 0 76.4549 2.72448 81.6495 7.23114C87.9725 12.7211 91.9777 20.8433 91.9777 29.9078Z" fill="url(#paint1_linear_23_157)"/>
<path d="M62.2943 53.2093C75.0668 53.2093 85.4209 42.7768 85.4209 29.9078C85.4209 17.0387 75.0668 6.60632 62.2943 6.60632C49.5218 6.60632 39.1676 17.0387 39.1676 29.9078C39.1676 42.7768 49.5218 53.2093 62.2943 53.2093Z" fill="white"/>
<path opacity="0.06" d="M91.9777 29.9078C91.9777 46.4288 78.6812 59.8258 62.2943 59.8258C51.9661 59.8258 42.8679 54.51 37.5513 46.439C71.0265 43.694 79.8502 15.1177 81.6597 7.23108C87.9725 12.721 91.9777 20.8432 91.9777 29.9078Z" fill="#1A6FB5" fill-opacity="0.5"/>
<defs>
<linearGradient id="paint0_linear_23_157" x1="5.67441" y1="84.3265" x2="53.9241" y2="40.7922" gradientUnits="userSpaceOnUse">
<stop stop-color="#67C3F3"/>
<stop offset="1" stop-color="#5A98F2"/>
</linearGradient>
<linearGradient id="paint1_linear_23_157" x1="50.017" y1="2.11336" x2="72.7814" y2="52.9053" gradientUnits="userSpaceOnUse">
<stop stop-color="#67C3F3"/>
<stop offset="1" stop-color="#5A98F2"/>
</linearGradient>
</defs>
</svg>
